<svg xmlns="http://www.w3.org/2000/svg" viewBox="0 0 72.72 64.71"><defs><style>.cls-1{fill:#9b9797;}.cls-1,.cls-2{stroke:#9b9797;}.cls-1,.cls-2,.cls-4,.cls-5,.cls-6{stroke-miterlimit:10;}.cls-2,.cls-7{fill:#ef7595;}.cls-3,.cls-4{fill:#fff;}.cls-4,.cls-5{stroke:#fff;}.cls-5{fill:#72ff49;}.cls-6{fill:none;stroke:#000;}</style></defs><g id="Layer_2" data-name="Layer 2"><g id="Layer_1-2" data-name="Layer 1"><path class="cls-1" d="M25.52,13.86a39.34,39.34,0,0,0-3.37-3.54A41.27,41.27,0,0,0,3.34.64Q4,13.89,4.61,27.13c1.55-2.66,6.48-10.3,15.56-12.61A21.94,21.94,0,0,1,25.52,13.86Z"/><path class="cls-2" d="M21.85,15.44a25.13,25.13,0,0,0-2-2.53,23.9,23.9,0,0,0-11.25-7l.9,18.85c.91-1.88,3.8-7.29,9.2-8.88A10.88,10.88,0,0,1,21.85,15.44Z"/><path class="cls-1" d="M48.38,16a37.15,37.15,0,0,1,3.81-3.06A41.4,41.4,0,0,1,72.11,5.81l-4.77,26.1c-1.18-2.85-5.05-11.08-13.75-14.57A21.51,21.51,0,0,0,48.38,16Z"/><path class="cls-2" d="M51.8,18a26.45,26.45,0,0,1,2.34-2.24,24,24,0,0,1,12.08-5.45L62.83,28.91c-.65-2-2.8-7.73-7.94-10A10.61,10.61,0,0,0,51.8,18Z"/><path class="cls-1" d="M67.82,34.3c.62,4.44-.09,12-4.88,14.12-3.16,1.39-7.81.29-7.81,0s6-1.57,9.76.83c2,1.29,3.46,3.71,2.93,5.82-.29,1.11-1.39,3.16-10.73,5.81a87.58,87.58,0,0,1-23.42,3.33,82,82,0,0,1-16.58-1.66c-7.19-1.37-11.94-2.3-12.68-5-.65-2.34,1.81-5.47,4.88-6.64s6.83-.25,6.82,0-4,.56-7.16,0C3.79,50.11.33,41.33.51,34.72.83,22.84,16.79,10.25,34.16,10.21,52,10.17,66.27,23.21,67.82,34.3Z"/><ellipse class="cls-3" cx="34.26" cy="53.46" rx="13.75" ry="9.75"/><path class="cls-4" d="M15,29.11c-1.52,2.45.15,7.69,4.28,9.54a8.7,8.7,0,0,0,11.31-4.8c1.74-4.88-2.85-10.53-5.81-10.64-1.17-.05-1.36.81-4.89,2.95S15.69,28,15,29.11Z"/><ellipse class="cls-5" cx="23.88" cy="31.75" rx="4.38" ry="6.04"/><path class="cls-6" d="M42.75,56a5.17,5.17,0,0,0-4-1.31c-1.81.39-2.27,2.13-3.8,2.1s-1.86-1.73-3.56-2.13c-1.1-.26-2.52.08-4.36,1.61"/><path class="cls-7" d="M34.52,51.21a25.42,25.42,0,0,1,4.5-3l1-.48a14.61,14.61,0,0,0-2-.49,17.5,17.5,0,0,0-6.41,0,12.81,12.81,0,0,0-2.26.65l1.06.68Q32.45,49.94,34.52,51.21Z"/><path class="cls-4" d="M53.69,29.06c1.52,2.45-.15,7.69-4.28,9.54a8.71,8.71,0,0,1-11.32-4.8C36.35,28.92,41,23.27,43.9,23.16c1.17,0,1.37.81,4.9,2.95S53,28,53.69,29.06Z"/><ellipse class="cls-5" cx="44.83" cy="31.7" rx="4.38" ry="6.04"/></g></g></svg>